<svg xmlns:xlink="http://www.w3.org/1999/xlink" version="1.1" class="highcharts-root" style="font-family: Helvetica, Arial, sans-serif; font-size: 1rem;" xmlns="http://www.w3.org/2000/svg" width="660" height="330" viewBox="0 0 660 330" aria-label="Interactive chart" aria-hidden="false"><desc aria-hidden="true">Created with Highcharts 11.4.1</desc><defs aria-hidden="true"><filter id="highcharts-drop-shadow-2"><feDropShadow dx="1" dy="1" flood-color="#000000" flood-opacity="0.75" stdDeviation="2.5"></feDropShadow></filter><clipPath id="highcharts-4mzenpb-41-"><rect x="0" y="0" width="583" height="194" fill="none"></rect></clipPath></defs><rect fill="#fff" class="highcharts-background" filter="none" x="0" y="0" width="660" height="330" rx="0" ry="0" aria-hidden="true"></rect><rect fill="none" class="highcharts-plot-background" x="67" y="48" width="583" height="194" filter="none" aria-hidden="true"></rect><g class="highcharts-plot-lines-0" data-z-index="0" aria-hidden="true"><path fill="none" class="highcharts-plot-line " stroke="#808080" stroke-width="1"></path></g><rect fill="none" class="highcharts-plot-border" data-z-index="1" stroke="#cccccc" stroke-width="0" x="67" y="48" width="583" height="194" aria-hidden="true"></rect><g class="highcharts-grid highcharts-xaxis-grid" data-z-index="1" aria-hidden="true"><path fill="none" stroke="#e6e6e6" stroke-width="0" stroke-dasharray="none" data-z-index="1" class="highcharts-grid-line" d="M 124.5 48 L 124.5 242" opacity="1"></path><path fill="none" stroke="#e6e6e6" stroke-width="0" stroke-dasharray="none" data-z-index="1" class="highcharts-grid-line" d="M 183.5 48 L 183.5 242" opacity="1"></path><path fill="none" stroke="#e6e6e6" stroke-width="0" stroke-dasharray="none" data-z-index="1" class="highcharts-grid-line" d="M 241.5 48 L 241.5 242" opacity="1"></path><path fill="none" stroke="#e6e6e6" stroke-width="0" stroke-dasharray="none" data-z-index="1" class="highcharts-grid-line" d="M 299.5 48 L 299.5 242" opacity="1"></path><path fill="none" stroke="#e6e6e6" stroke-width="0" stroke-dasharray="none" data-z-index="1" class="highcharts-grid-line" d="M 358.5 48 L 358.5 242" opacity="1"></path><path fill="none" stroke="#e6e6e6" stroke-width="0" stroke-dasharray="none" data-z-index="1" class="highcharts-grid-line" d="M 416.5 48 L 416.5 242" opacity="1"></path><path fill="none" stroke="#e6e6e6" stroke-width="0" stroke-dasharray="none" data-z-index="1" class="highcharts-grid-line" d="M 474.5 48 L 474.5 242" opacity="1"></path><path fill="none" stroke="#e6e6e6" stroke-width="0" stroke-dasharray="none" data-z-index="1" class="highcharts-grid-line" d="M 532.5 48 L 532.5 242" opacity="1"></path><path fill="none" stroke="#e6e6e6" stroke-width="0" stroke-dasharray="none" data-z-index="1" class="highcharts-grid-line" d="M 591.5 48 L 591.5 242" opacity="1"></path><path fill="none" stroke="#e6e6e6" stroke-width="0" stroke-dasharray="none" data-z-index="1" class="highcharts-grid-line" d="M 649.5 48 L 649.5 242" opacity="1"></path><path fill="none" stroke="#e6e6e6" stroke-width="0" stroke-dasharray="none" data-z-index="1" class="highcharts-grid-line" d="M 66.5 48 L 66.5 242" opacity="1"></path></g><g class="highcharts-grid highcharts-yaxis-grid" data-z-index="1" aria-hidden="true"><path fill="none" stroke="#F5F6F8" stroke-width="1" stroke-dasharray="none" data-z-index="1" class="highcharts-grid-line" d="M 67 242.5 L 650 242.5" opacity="1"></path><path fill="none" stroke="#F5F6F8" stroke-width="1" stroke-dasharray="none" data-z-index="1" class="highcharts-grid-line" d="M 67 203.5 L 650 203.5" opacity="1"></path><path fill="none" stroke="#F5F6F8" stroke-width="1" stroke-dasharray="none" data-z-index="1" class="highcharts-grid-line" d="M 67 164.5 L 650 164.5" opacity="1"></path><path fill="none" stroke="#F5F6F8" stroke-width="1" stroke-dasharray="none" data-z-index="1" class="highcharts-grid-line" d="M 67 126.5 L 650 126.5" opacity="1"></path><path fill="none" stroke="#F5F6F8" stroke-width="1" stroke-dasharray="none" data-z-index="1" class="highcharts-grid-line" d="M 67 87.5 L 650 87.5" opacity="1"></path><path fill="none" stroke="#F5F6F8" stroke-width="1" stroke-dasharray="none" data-z-index="1" class="highcharts-grid-line" d="M 67 47.5 L 650 47.5" opacity="1"></path></g><g class="highcharts-axis highcharts-xaxis" data-z-index="2" aria-hidden="true"><path fill="none" class="highcharts-axis-line" stroke="#aaa" stroke-width="1" data-z-index="7" d="M 67 242.5 L 650 242.5"></path></g><g class="highcharts-axis highcharts-yaxis" data-z-index="2" aria-hidden="true"><path fill="none" class="highcharts-axis-line" stroke="#aaa" stroke-width="1" data-z-index="7" d="M 66.5 48 L 66.5 242"></path></g><g class="highcharts-series-group" data-z-index="3" filter="none" aria-hidden="false"><g class="highcharts-series highcharts-series-0 highcharts-spline-series" data-z-index="0.1" opacity="1" transform="translate(67,48) scale(1 1)" clip-path="url(#highcharts-4mzenpb-41-)" aria-hidden="true"><path fill="none" d="M 29.15 65.8048 C 29.15 65.8048 64.13000000000001 67.40335999999999 87.45 70.3056 C 110.77000000000001 73.20784 122.42999999999999 77.11888 145.75 80.316 C 169.07 83.51312 180.73000000000002 86.2912 204.05 86.2912 C 227.37000000000003 86.2912 239.03000000000003 77.32064000000001 262.35 67.2792 C 285.66999999999996 57.237760000000016 297.33000000000004 36.084 320.65 36.084 C 343.96999999999997 36.084 355.63 56.166880000000006 378.95 64.0976 C 402.27 72.02832000000001 413.93 64.0976 437.25 75.7376 C 460.57 87.3776 472.23 115.85680000000002 495.55 133.7824 C 518.8700000000001 151.70800000000003 553.85 165.3656 553.85 165.3656" class="highcharts-graph" data-z-index="1" stroke="#1F78B4" stroke-width="2" stroke-linejoin="round" stroke-linecap="round" filter="none"></path></g><g class="highcharts-markers highcharts-series-0 highcharts-spline-series" data-z-index="0.1" opacity="1" transform="translate(67,48) scale(1 1)" clip-path="none" aria-hidden="false"><path fill="#fff" d="M 29 69.8048 A 4 4 0 1 1 29.003999999333335 69.80479800000016 Z" stroke="#1F78B4" stroke-width="2" opacity="1" class="highcharts-point" tabindex="-1" role="img" aria-label="2024.07.26, 30,152." style="outline: none;"></path><path fill="#fff" d="M 87 74.3056 A 4 4 0 1 1 87.00399999933333 74.30559800000016 Z" stroke="#1F78B4" stroke-width="2" opacity="1" class="highcharts-point" tabindex="-1" role="img" aria-label="2024.07.29, 30,094." style="outline: none;"></path><path fill="#fff" d="M 145 84.316 A 4 4 0 1 1 145.00399999933333 84.31599800000016 Z" stroke="#1F78B4" stroke-width="2" opacity="1" class="highcharts-point" tabindex="-1" role="img" aria-label="2024.07.30, 29,965." style="outline: none;"></path><path fill="#fff" d="M 204 90.2912 A 4 4 0 1 1 204.00399999933333 90.29119800000016 Z" stroke="#1F78B4" stroke-width="2" opacity="1" class="highcharts-point" tabindex="-1" role="img" aria-label="2024.07.31, 29,888." style="outline: none;"></path><path fill="#fff" d="M 262 71.2792 A 4 4 0 1 1 262.00399999933336 71.27919800000016 Z" stroke="#1F78B4" stroke-width="2" opacity="1" class="highcharts-point" tabindex="-1" role="img" aria-label="2024.08.01, 30,133." style="outline: none;"></path><path fill="#fff" d="M 320 40.084 A 4 4 0 1 1 320.00399999933336 40.08399800000017 Z" stroke="#1F78B4" stroke-width="2" opacity="1" class="highcharts-point" tabindex="-1" role="img" aria-label="2024.08.02, 30,535." style="outline: none;"></path><path fill="#fff" d="M 378 68.0976 A 4 4 0 1 1 378.00399999933336 68.09759800000016 Z" stroke="#1F78B4" stroke-width="2" opacity="1" class="highcharts-point" tabindex="-1" role="img" aria-label="2024.08.05, 30,174." style="outline: none;"></path><path fill="#fff" d="M 437 79.7376 A 4 4 0 1 1 437.00399999933336 79.73759800000016 Z" stroke="#1F78B4" stroke-width="2" opacity="1" class="highcharts-point" tabindex="-1" role="img" aria-label="2024.08.06, 30,024." style="outline: none;"></path><path fill="#fff" d="M 495 137.7824 A 4 4 0 1 1 495.00399999933336 137.78239800000017 Z" stroke="#1F78B4" stroke-width="2" opacity="1" class="highcharts-point" tabindex="-1" role="img" aria-label="2024.08.07, 29,276." style="outline: none;"></path><path fill="#fff" d="M 553 169.3656 A 4 4 0 1 1 553.0039999993334 169.36559800000018 Z" stroke="#1F78B4" stroke-width="2" opacity="1" class="highcharts-point" tabindex="-1" role="img" aria-label="2024.08.08, 28,869." style="outline: none;"></path></g></g><text x="310" text-anchor="middle" class="highcharts-title" data-z-index="4" style="font-size: 1.2em; color: rgb(51, 51, 51); font-weight: bold; fill: rgb(51, 51, 51);" y="25" aria-hidden="true">(소매가격) 과일류/사과/후지,등급:상품,단위:10개</text><text x="330" text-anchor="middle" class="highcharts-subtitle" data-z-index="4" style="color: rgb(102, 102, 102); font-size: 0.8em; fill: rgb(102, 102, 102);" y="44" aria-hidden="true"></text><text x="10" text-anchor="start" class="highcharts-caption" data-z-index="4" style="color: rgb(102, 102, 102); font-size: 0.8em; fill: rgb(102, 102, 102);" y="324" aria-hidden="true"></text><g class="highcharts-axis-labels highcharts-xaxis-labels" data-z-index="7" aria-hidden="true"><text x="99.44983164553722" text-anchor="end" transform="translate(0,0) rotate(-45 99.44983164553722 267)" style="color: rgb(153, 153, 153); cursor: default; font-size: var(--hc-fs); font-family: Poppins, Pretendard, sans-serif; fill: rgb(153, 153, 153);" y="267" opacity="1">2024.07.26</text><text x="157.7498316455372" text-anchor="end" transform="translate(0,0) rotate(-45 157.7498316455372 267)" style="color: rgb(153, 153, 153); cursor: default; font-size: var(--hc-fs); font-family: Poppins, Pretendard, sans-serif; fill: rgb(153, 153, 153);" y="267" opacity="1">2024.07.29</text><text x="216.0498316455372" text-anchor="end" transform="translate(0,0) rotate(-45 216.0498316455372 267)" style="color: rgb(153, 153, 153); cursor: default; font-size: var(--hc-fs); font-family: Poppins, Pretendard, sans-serif; fill: rgb(153, 153, 153);" y="267" opacity="1">2024.07.30</text><text x="274.3498316455372" text-anchor="end" transform="translate(0,0) rotate(-45 274.3498316455372 267)" style="color: rgb(153, 153, 153); cursor: default; font-size: var(--hc-fs); font-family: Poppins, Pretendard, sans-serif; fill: rgb(153, 153, 153);" y="267" opacity="1">2024.07.31</text><text x="332.64983164553723" text-anchor="end" transform="translate(0,0) rotate(-45 332.64983164553723 267)" style="color: rgb(153, 153, 153); cursor: default; font-size: var(--hc-fs); font-family: Poppins, Pretendard, sans-serif; fill: rgb(153, 153, 153);" y="267" opacity="1">2024.08.01</text><text x="390.94983164553724" text-anchor="end" transform="translate(0,0) rotate(-45 390.94983164553724 267)" style="color: rgb(153, 153, 153); cursor: default; font-size: var(--hc-fs); font-family: Poppins, Pretendard, sans-serif; fill: rgb(153, 153, 153);" y="267" opacity="1">2024.08.02</text><text x="449.24983164553726" text-anchor="end" transform="translate(0,0) rotate(-45 449.24983164553726 267)" style="color: rgb(153, 153, 153); cursor: default; font-size: var(--hc-fs); font-family: Poppins, Pretendard, sans-serif; fill: rgb(153, 153, 153);" y="267" opacity="1">2024.08.05</text><text x="507.5498316455372" text-anchor="end" transform="translate(0,0) rotate(-45 507.5498316455372 267)" style="color: rgb(153, 153, 153); cursor: default; font-size: var(--hc-fs); font-family: Poppins, Pretendard, sans-serif; fill: rgb(153, 153, 153);" y="267" opacity="1">2024.08.06</text><text x="565.8498316455373" text-anchor="end" transform="translate(0,0) rotate(-45 565.8498316455373 267)" style="color: rgb(153, 153, 153); cursor: default; font-size: var(--hc-fs); font-family: Poppins, Pretendard, sans-serif; fill: rgb(153, 153, 153);" y="267" opacity="1">2024.08.07</text><text x="624.1498316455372" text-anchor="end" transform="translate(0,0) rotate(-45 624.1498316455372 267)" style="color: rgb(153, 153, 153); cursor: default; font-size: var(--hc-fs); font-family: Poppins, Pretendard, sans-serif; fill: rgb(153, 153, 153);" y="267" opacity="1">2024.08.08</text></g><g class="highcharts-axis-labels highcharts-yaxis-labels" data-z-index="7" aria-hidden="true"><text x="52" text-anchor="end" transform="translate(0,0)" y="248" opacity="1" style="color: rgb(153, 153, 153); cursor: default; font-size: var(--hc-fs); font-family: Poppins, Pretendard, sans-serif; fill: rgb(153, 153, 153);">28,500</text><text x="52" text-anchor="end" transform="translate(0,0)" y="209" opacity="1" style="color: rgb(153, 153, 153); cursor: default; font-size: var(--hc-fs); font-family: Poppins, Pretendard, sans-serif; fill: rgb(153, 153, 153);">29,000</text><text x="52" text-anchor="end" transform="translate(0,0)" y="170" opacity="1" style="color: rgb(153, 153, 153); cursor: default; font-size: var(--hc-fs); font-family: Poppins, Pretendard, sans-serif; fill: rgb(153, 153, 153);">29,500</text><text x="52" text-anchor="end" transform="translate(0,0)" y="131" opacity="1" style="color: rgb(153, 153, 153); cursor: default; font-size: var(--hc-fs); font-family: Poppins, Pretendard, sans-serif; fill: rgb(153, 153, 153);">30,000</text><text x="52" text-anchor="end" transform="translate(0,0)" y="92" opacity="1" style="color: rgb(153, 153, 153); cursor: default; font-size: var(--hc-fs); font-family: Poppins, Pretendard, sans-serif; fill: rgb(153, 153, 153);">30,500</text><text x="52" text-anchor="end" transform="translate(0,0)" y="54" opacity="1" style="color: rgb(153, 153, 153); cursor: default; font-size: var(--hc-fs); font-family: Poppins, Pretendard, sans-serif; fill: rgb(153, 153, 153);">31,000</text></g></svg>